<svg width="512" height="512" viewBox="0 0 512 512" fill="none" xmlns="http://www.w3.org/2000/svg">
<path d="M256 256V320H320V256H256ZM256 0H320V64H256V0ZM256 256H192V192H256V256ZM128 0H192V64H128V0ZM128 512H64V448H128V512ZM0 448V384H64V448H0ZM384 512H320V448H384V512ZM384 0H448V64H384V0ZM0 192V128H64V192H0ZM0 320V256H64V320H0ZM512 512H448V448H512V512ZM512 64V128H448V64H512ZM512 192V256H448V192H512ZM512 320V384H448V320H512ZM256 512H192V448H256V512ZM320 384V448H256V384H320ZM256 192V128H320V192H256ZM448 384V448H384V384H448ZM384 256H448V320H384V256ZM128 384H64V320H128V384ZM0 0H64V64H0V0ZM128 256H64V192H128V256ZM128 64V128H64V64H128ZM192 384V448H128V384H192ZM384 320V384H320V320H384ZM256 320V384H192V320H256ZM320 192H384V256H320V192ZM384 128H448V192H384V128ZM192 320H128V256H192V320ZM320 128V64H384V128H320ZM192 128V64H256V128H192ZM192 192H128V128H192V192Z" fill="black"/>
</svg>
