<svg width="104" height="111" viewBox="0 0 104 111" fill="none" xmlns="http://www.w3.org/2000/svg">
<path d="M25.4678 107.902C25.1779 105.128 25.7562 102.009 27.0275 99.5135C28.0721 97.4574 29.499 95.7926 33.9531 91.4137C36.5985 88.8163 38.8162 86.4492 39.4529 85.5412C41.521 82.5934 43.1064 78.9466 43.8798 75.3577C44.2778 73.5182 44.4098 68.5012 44.1143 66.4178L43.9517 65.2434L42.6938 66.1333C40.3488 67.7867 37.9857 69.1667 33.7701 71.3403C25.7163 75.4967 24.3403 76.7314 21.2854 82.5395C19.5793 85.7889 18.6035 87.2311 17.394 88.2885C16.4209 89.1369 15.0042 89.743 13.9886 89.7441C12.6565 89.7401 11.3993 88.4815 11.3994 87.1494L11.4015 86.4892L10.292 86.4872C8.65132 86.4819 7.19494 86.1157 5.66444 85.3127C1.48898 83.1303 0.0458547 78.463 1.87374 73.0562C2.74574 70.4704 3.58031 68.9669 6.74244 64.2556C10.0241 59.3635 11.0358 57.5616 11.9161 55.0343C12.5754 53.1417 12.5862 53.044 12.6057 49.4538C12.6322 44.8831 12.6053 44.9381 16.2773 41.3473C19.3449 38.3438 20.6689 36.5158 20.6738 35.2852C20.6738 34.8477 20.4907 32.2164 20.2672 29.437C20.0437 26.6537 19.893 24.1588 19.9258 23.8851C19.9882 23.4197 20.3374 23.6002 26.2044 27.1351L32.417 30.8779L36.1251 26.9587C38.165 24.8002 39.9036 23.0388 39.9895 23.0381C40.0715 23.0374 41.2492 25.4842 42.6034 28.4725C43.9577 31.4608 45.143 33.892 45.2366 33.8716C46.605 33.5628 49.4903 33.3814 51.3779 33.4782C58.5845 33.8489 64.7654 36.6388 69.9597 41.871C74.7559 46.7044 77.8788 52.2711 80.9078 61.3895C85.1443 74.1499 87.8955 90.3882 88.3416 105.252L88.4638 109.404L25.6124 109.253L25.4678 107.902Z" fill="black"/>
<path d="M19.4061 52.9649C20.713 52.3207 21.5011 51.7513 22.6668 50.5966C24.0727 49.2014 25.7277 46.8197 25.73 46.1868C25.7319 45.511 23.8319 45.3362 22.579 45.9018C21.4583 46.4038 20.7317 47.293 18.8488 50.4306C16.5541 54.2633 16.6307 54.0986 17.2075 53.9412C17.4686 53.8686 18.457 53.4303 19.4061 52.9649Z" fill="#DC8400"/>
<path d="M9.13673 76.7508C9.39129 76.3774 9.59769 75.8561 9.59924 75.5865C9.60087 74.4302 8.46976 73.2877 7.32518 73.286C6.44233 73.2859 5.53485 74.0438 4.97896 75.2518C4.55723 76.1657 4.42621 76.8192 4.34647 78.4255L4.24304 80.4499L6.4604 78.9383C7.67976 78.1073 8.88604 77.1202 9.13673 76.7508Z" fill="#DC8400"/>
<path d="M86.7046 107.462C87.2158 106.953 87.2232 106.91 87.0952 104.771C86.3842 92.6867 85.1117 83.4005 82.6723 72.4527C80.6031 63.1813 78.4844 56.7503 75.7104 51.3329C73.8823 47.7628 72.0631 45.2083 69.5527 42.6871C65.6433 38.7562 61.4236 36.4297 56.0339 35.2228C52.2686 34.3806 45.1613 34.6457 44.0569 35.671C43.4563 36.2271 43.5562 37.3786 44.2521 37.896C44.7357 38.2551 44.8608 38.2579 46.7919 37.9715C54.4035 36.8464 61.4349 39.0664 67.036 44.3654C72.5269 49.5599 76.3646 58.2494 79.621 72.8543C81.979 83.4279 83.2699 92.5849 83.9482 103.607C84.135 106.668 84.2092 107.112 84.5878 107.515C85.1674 108.135 86.0501 108.112 86.7046 107.462Z" fill="#DC8400"/>
<path d="M55.1207 79.8065C57.023 73.0935 55.6085 67.9355 53.6574 62C53.6574 62 57.0718 62 60.9739 66.9462C64.876 71.8925 64.3882 78.3226 62.9249 83.2688C61.4616 88.2151 59.8879 90.6342 59.5106 95.6344C59.1896 99.8891 59.1666 102.557 60.5 107H40C40 107 40.4913 104.074 40.9755 102.559C41.8164 99.9282 42.4526 98.4717 43.9021 96.129C44.6893 94.8568 45.5756 93.8833 46.5391 92.9234C46.5513 92.9112 46.5207 92.9416 46.8675 92.5817C47.6133 91.8077 49.9177 89.12 50.5688 88.2648C50.8715 87.8672 49.7073 89.4629 50.173 88.8246C51.8308 86.5524 54.2453 82.8955 55.1207 79.8065Z" fill="#DC8400" stroke="#DC8400"/>
<path d="M102.69 37.1085C101.561 36.2477 99.9656 36.5029 99.1242 37.6734C98.6414 38.3441 98.5122 39.1724 98.7021 39.9165C95.9377 40.5547 91.6276 41.1141 90.0054 38.9334C88.2275 36.5464 93.4186 31.0852 96.4758 28.2066C96.584 28.3315 96.708 28.4483 96.8451 28.5542C97.9715 29.4123 99.5673 29.1571 100.409 27.9866C101.253 26.8162 101.021 25.1705 99.8944 24.3123C98.7681 23.4515 97.1696 23.7067 96.3281 24.8772C95.7425 25.6919 95.6766 26.7347 96.0696 27.5847C90.5461 30.0885 78.2831 34.0235 86.5472 14.8754C88.027 15.5924 89.8445 15.1524 90.8626 13.7376C92.0074 12.1407 91.7067 9.90847 90.1926 8.71902L90.1953 8.7163L90.1715 8.70001L90.1531 8.68371C88.6021 7.5024 86.4074 7.85 85.2494 9.46039C84.2313 10.878 84.3552 12.7952 85.4526 14.0417C70.0321 27.821 70.1534 14.4626 70.8709 8.31981C71.744 8.41758 72.6435 8.04553 73.208 7.26342C74.0494 6.09026 73.8173 4.44457 72.691 3.58642C71.5647 2.72827 69.9688 2.98083 69.1247 4.15128C68.2833 5.32444 68.5154 6.97013 69.6417 7.82828C69.8132 7.95592 69.9925 8.05911 70.1798 8.13786C68.4046 11.9832 64.8383 18.7235 62.095 17.6698C59.5971 16.7085 58.8532 12.3037 58.6395 9.39521C59.386 9.36263 60.1167 8.99601 60.5994 8.32525C61.4409 7.15208 61.2114 5.50639 60.0824 4.64824C58.9561 3.79009 57.3602 4.04265 56.5161 5.2131C55.6747 6.38355 55.9068 8.02924 57.0358 8.8901C57.4156 9.18068 57.8508 9.3409 58.294 9.38435C57.3602 17.1511 55.5349 21.2871 55.5349 21.2871L88.5625 46.4504C88.5625 46.4504 91.8703 43.4442 98.8129 40.256C98.9817 40.6769 99.2587 41.0598 99.6412 41.3504C100.767 42.2085 102.363 41.956 103.205 40.7828C104.049 39.6124 103.817 37.9667 102.69 37.1085Z" fill="#DC8400"/>
<path d="M102.69 37.1085L102.862 36.8696C101.606 35.9136 99.8311 36.1961 98.892 37.4969C98.3566 38.2437 98.2141 39.167 98.4225 39.9953L98.7021 39.9165L98.6414 39.626C97.4175 39.9111 95.8876 40.1745 94.4447 40.1908C93.722 40.199 93.0203 40.1419 92.3952 40.0007C91.7648 39.8568 91.2135 39.6287 90.7756 39.2946C90.5698 39.1371 90.3878 38.9579 90.2348 38.7488C90.0502 38.5017 89.9552 38.2192 89.9341 37.8879C89.9025 37.3882 90.0555 36.7745 90.3588 36.101C90.6595 35.4248 91.108 34.6916 91.6434 33.9475C93.081 31.9488 95.1438 29.8604 96.6684 28.4266L96.4758 28.2066L96.2622 28.4076C96.3835 28.5461 96.5207 28.6764 96.6737 28.7932C97.9266 29.7491 99.7045 29.4667 100.641 28.1631C101.577 26.8596 101.321 25.0266 100.066 24.0734C98.8103 23.1147 97.035 23.3972 96.0986 24.7007C95.4471 25.6077 95.3732 26.77 95.8111 27.7151L96.0696 27.5847L95.9562 27.3131C94.4316 28.0029 92.3899 28.804 90.43 29.187C89.4541 29.377 88.4966 29.4667 87.6445 29.3906C86.7899 29.3146 86.0408 29.0756 85.4605 28.6302C84.9962 28.2772 84.6269 27.7911 84.379 27.1176C84.0097 26.1101 83.9253 24.6681 84.284 22.6802C84.6428 20.6924 85.442 18.1668 86.811 14.9949L86.5472 14.8754L86.4233 15.147C88.0244 15.921 89.9895 15.4457 91.0921 13.9141C92.3319 12.1869 92.0048 9.76998 90.3694 8.48276L90.1926 8.71902L90.4248 8.89554V8.89282C90.4722 8.82764 90.4933 8.74346 90.4802 8.6647C90.4643 8.58324 90.4221 8.51263 90.3562 8.46918L90.3245 8.44474C88.6469 7.16566 86.2729 7.54314 85.02 9.28659C83.9174 10.8182 84.0519 12.893 85.2389 14.2427L85.4526 14.0417L85.2653 13.819C81.8705 16.8497 79.2432 18.5497 77.2464 19.2938C76.2467 19.6658 75.4105 19.7989 74.7142 19.7527C74.0178 19.7066 73.4586 19.4866 72.9917 19.1336C72.4061 18.6882 71.9656 18.0174 71.6438 17.1919C71.1637 15.9535 70.9606 14.3785 70.9237 12.7979C70.8841 11.2174 71.0081 9.62876 71.1558 8.3524L70.8709 8.31982L70.8366 8.61582C71.8073 8.72173 72.8097 8.30895 73.4375 7.43723C74.3739 6.13371 74.118 4.30335 72.8624 3.34744C71.6095 2.39153 69.8316 2.67396 68.8952 3.97747C67.9588 5.28099 68.2147 7.11135 69.4703 8.06726C69.6602 8.21119 69.8633 8.32525 70.069 8.41215L70.1798 8.13787L69.9213 8.01295C69.0324 9.93563 67.6924 12.5888 66.2469 14.5984C65.5321 15.5924 64.7935 16.4261 64.0918 16.9312C63.741 17.1864 63.4007 17.3548 63.0868 17.4336C62.7729 17.5096 62.4828 17.4987 62.1979 17.3901C61.9605 17.3005 61.7416 17.1729 61.5332 17.0181C61.0979 16.6841 60.7207 16.2061 60.4042 15.6304C59.9321 14.7668 59.5944 13.6832 59.3597 12.5753C59.1275 11.4673 58.9983 10.3348 58.9271 9.37078L58.6395 9.39522L58.6475 9.69122C59.4784 9.65592 60.2934 9.24586 60.8315 8.49905C61.7679 7.19553 61.5094 5.36518 60.2565 4.40926C59.0009 3.45335 57.2231 3.73578 56.2866 5.03658C55.3502 6.34281 55.6087 8.17317 56.8617 9.12908C57.2864 9.45225 57.7717 9.63148 58.2623 9.68036L58.294 9.38435L58.0065 9.34905C57.5422 13.2162 56.8564 16.1762 56.2866 18.1668C56.0044 19.1607 55.7485 19.913 55.5639 20.4154C55.4742 20.6679 55.4003 20.8553 55.3502 20.9829C55.3239 21.0454 55.3054 21.0916 55.2922 21.1214L55.279 21.1567L55.2737 21.1649C55.2183 21.2925 55.2553 21.4446 55.3634 21.5261L88.391 46.6894C88.4992 46.7709 88.6495 46.7654 88.7524 46.6731L88.7603 46.6649C88.9423 46.502 92.2316 43.6017 98.929 40.5248L98.8129 40.256L98.5465 40.37C98.7338 40.8399 99.045 41.2662 99.4697 41.5894C100.723 42.5453 102.498 42.2629 103.437 40.9593C104.373 39.6558 104.115 37.8255 102.862 36.8696L102.516 37.3475C103.018 37.7277 103.318 38.2817 103.4 38.8737C103.484 39.4657 103.35 40.0876 102.975 40.609C102.601 41.1277 102.063 41.4427 101.49 41.5351C100.915 41.6247 100.314 41.4916 99.8126 41.1114C99.475 40.8507 99.2297 40.514 99.0793 40.1392C99.0503 40.0659 98.9923 40.0061 98.9211 39.979C98.8498 39.9491 98.7681 39.9518 98.6968 39.9844C91.7252 43.1862 88.3937 46.2114 88.3752 46.2277L88.5625 46.4504L88.734 46.2114L55.7063 21.0481L55.5349 21.2871L55.796 21.4066C55.8066 21.3849 57.6398 17.219 58.5789 9.41694C58.5868 9.3409 58.5657 9.25943 58.5182 9.19697C58.4707 9.13451 58.3995 9.09649 58.323 9.08835C57.93 9.05033 57.5449 8.90911 57.2072 8.65113C56.706 8.26822 56.4053 7.71422 56.3209 7.12493C56.2392 6.53291 56.3737 5.91102 56.7483 5.38962C57.1228 4.86821 57.6609 4.55319 58.2333 4.46358C58.8084 4.37125 59.4098 4.50703 59.9109 4.88722C60.4121 5.27013 60.7128 5.82141 60.7946 6.41342C60.879 7.00544 60.7445 7.62732 60.3699 8.14873C59.9426 8.74346 59.2963 9.06934 58.6316 9.09921C58.5525 9.10193 58.476 9.13995 58.4259 9.19969C58.3731 9.25943 58.3467 9.3409 58.352 9.41966C58.4496 10.734 58.6527 12.3499 59.0774 13.8408C59.2911 14.5848 59.5601 15.2963 59.9057 15.9264C60.2486 16.5537 60.6706 17.0995 61.1903 17.496C61.4356 17.6834 61.7046 17.8355 61.9948 17.9468C62.3905 18.1016 62.8099 18.1125 63.2161 18.0093C63.8281 17.8572 64.4216 17.4689 65.0045 16.9366C65.5848 16.4016 66.1546 15.7173 66.7059 14.9487C68.1909 12.8821 69.5415 10.2072 70.4383 8.26279C70.4726 8.18946 70.4753 8.10528 70.4489 8.02924C70.4199 7.9532 70.3645 7.89346 70.2906 7.86358C70.1218 7.79298 69.9635 7.70065 69.8158 7.5893C69.3146 7.2064 69.0139 6.6524 68.9295 6.0631C68.8477 5.47109 68.9823 4.8492 69.3568 4.32779C69.7314 3.80639 70.2695 3.49409 70.8419 3.40175C71.4169 3.31214 72.0184 3.4452 72.5195 3.8254C73.0207 4.20831 73.3188 4.7623 73.4032 5.3516C73.485 5.94361 73.3504 6.5655 72.9785 7.08691C72.4773 7.78212 71.6781 8.11071 70.9052 8.02381C70.7469 8.00751 70.6045 8.12429 70.586 8.28723C70.3856 10.0144 70.2273 12.3064 70.4489 14.4328C70.5597 15.4973 70.7628 16.5211 71.111 17.4173C71.4591 18.3107 71.9524 19.082 72.6488 19.6115C73.2001 20.0325 73.8753 20.2932 74.672 20.3475C75.8695 20.4235 77.3256 20.0406 79.1245 19.0765C80.9261 18.1125 83.0706 16.5618 85.6398 14.2644C85.6979 14.2128 85.7348 14.1395 85.7401 14.058C85.7427 13.9765 85.7163 13.9005 85.6662 13.8408C84.6586 12.6975 84.5452 10.935 85.4789 9.63691C86.0118 8.89554 86.7794 8.44745 87.5944 8.31982C88.4095 8.18946 89.2668 8.37956 89.979 8.92269L90.1531 8.68371L89.9684 8.91455L89.9895 8.93084L90.0133 8.94985L90.0344 8.96614L90.1953 8.7163L89.9658 8.53978L89.9632 8.5425C89.8708 8.67285 89.8946 8.85752 90.0185 8.95528C91.406 10.047 91.683 12.0973 90.6305 13.561C89.6967 14.8618 88.027 15.2638 86.6712 14.6066C86.6 14.574 86.5209 14.5713 86.4496 14.5984C86.3758 14.6283 86.3177 14.6826 86.2861 14.7586C84.4449 19.025 83.6087 22.1615 83.4927 24.4671C83.4373 25.6186 83.5613 26.5636 83.8409 27.3322C84.1231 28.1007 84.5636 28.69 85.1149 29.1109C85.8087 29.6378 86.6633 29.8985 87.5892 29.9799C88.9793 30.1048 90.5435 29.8306 92.0549 29.4015C93.5664 28.9724 95.0224 28.3831 96.1857 27.8563C96.2569 27.8237 96.3123 27.7612 96.3413 27.6852C96.3677 27.6119 96.365 27.5277 96.3308 27.4544C95.9826 26.6994 96.0406 25.7761 96.5576 25.0537C96.9322 24.5323 97.4729 24.2173 98.0453 24.125C98.6177 24.0353 99.2218 24.1684 99.7229 24.5513C100.221 24.9315 100.522 25.4855 100.607 26.0775C100.688 26.6668 100.554 27.2914 100.179 27.8101C99.8047 28.3315 99.2666 28.6465 98.6942 28.7362C98.1192 28.8285 97.5178 28.6954 97.0166 28.3125C96.8952 28.2202 96.7871 28.1197 96.6895 28.0056C96.6367 27.9486 96.5655 27.9133 96.489 27.9106C96.4125 27.9079 96.3387 27.935 96.2806 27.9893C94.7428 29.4395 92.6642 31.5387 91.1844 33.5972C90.4485 34.621 89.8603 35.6339 89.5596 36.5708C89.4119 37.0434 89.3354 37.4969 89.3617 37.9287C89.3855 38.3605 89.5174 38.7678 89.7759 39.1154C89.9658 39.368 90.1847 39.5852 90.43 39.7726C90.9523 40.1691 91.5828 40.4244 92.2659 40.5791C93.292 40.8127 94.4447 40.8236 95.579 40.7285C96.7132 40.6307 97.8264 40.4244 98.7628 40.2071C98.8366 40.1881 98.9052 40.1392 98.9474 40.0713C98.987 40.0007 99.0002 39.9165 98.9791 39.8378C98.8129 39.1752 98.9263 38.4446 99.3536 37.8499C99.7282 37.3285 100.269 37.0135 100.841 36.9239C101.414 36.8315 102.015 36.9646 102.516 37.3475L102.69 37.1085Z" fill="#D8AD6D"/>
<path d="M54.4508 22.7916L52.2878 25.8032L85.3154 50.9665L87.481 47.9549L54.4508 22.7916Z" fill="black"/>
<path d="M54.4508 23.4868L54.2213 23.3103L52.0556 26.3246C52.0108 26.3871 51.9923 26.4659 52.0029 26.5446C52.0134 26.6206 52.053 26.6913 52.1137 26.7374L85.1439 51.9034C85.2046 51.9496 85.2811 51.9686 85.3576 51.955C85.4341 51.9442 85.5 51.9034 85.5449 51.8383L87.7105 48.8266C87.7553 48.7641 87.7765 48.6827 87.7659 48.6066C87.7527 48.5279 87.7131 48.4573 87.6525 48.4111L54.6248 23.2478C54.5642 23.2016 54.485 23.1826 54.4112 23.1935C54.3347 23.2043 54.2661 23.2478 54.2213 23.3103L54.4508 23.4868L54.2793 23.7258L87.0774 48.7153L85.2574 51.249L52.6887 26.436L54.6829 23.6633L54.4508 23.4868L54.2793 23.7258L54.4508 23.4868Z" fill="#DC8400"/>
<path d="M91.9008 10.5842L95.5942 14.0804L90.8303 14.6669C90.5985 14.6851 90.4365 14.838 90.3565 15.008L90.3564 15.0079L90.353 15.0154L88.4255 19.3672L85.9886 14.8781C85.8939 14.6952 85.7235 14.5723 85.5242 14.5433L80.5892 13.7204L83.9059 10.3681L83.906 10.3682L83.9117 10.3621C84.0543 10.2108 84.1091 10.0125 84.0641 9.80102L84.0641 9.80101L84.0631 9.79669L82.9781 4.9857L87.43 7.36125C87.6199 7.46793 87.8206 7.4575 87.9843 7.38434L87.9935 7.38025L88.0024 7.37563L92.2589 5.16259L91.6928 10.0283C91.66 10.2501 91.7583 10.4548 91.9008 10.5842Z" fill="#DC8400" stroke="#D8AD6D" stroke-width="0.7"/>
</svg>
