<?xml version="1.0" standalone="no"?>
<!DOCTYPE svg PUBLIC "-//W3C//DTD SVG 20010904//EN"
 "http://www.w3.org/TR/2001/REC-SVG-20010904/DTD/svg10.dtd">
<svg version="1.0" xmlns="http://www.w3.org/2000/svg"
 width="45.000000pt" height="42.000000pt" viewBox="0 0 45.000000 42.000000"
 preserveAspectRatio="xMidYMid meet">

<g transform="translate(0.000000,42.000000) scale(0.100000,-0.100000)"
fill="#000000" stroke="none">
<path d="M92 327 l-43 -43 21 -19 c20 -18 21 -18 65 25 42 41 44 45 28 62 -9
10 -19 18 -22 18 -4 0 -26 -19 -49 -43z"/>
<path d="M282 358 c-19 -19 -14 -32 27 -72 26 -25 45 -37 56 -33 32 13 28 38
-11 78 -40 41 -53 46 -72 27z"/>
<path d="M65 150 c-18 -20 -18 -21 25 -65 l44 -45 20 20 21 20 -46 46 -45 45
-19 -21z"/>
<path d="M312 117 l-43 -43 21 -19 c20 -18 21 -18 65 25 42 41 44 45 28 62 -9
10 -19 18 -22 18 -4 0 -26 -19 -49 -43z"/>
</g>
</svg>
